<mxfile host="app.diagrams.net" modified="2023-11-21T13:13:43.845Z" agent="Mozilla/5.0 (Windows NT 10.0; Win64; x64) AppleWebKit/537.36 (KHTML, like Gecko) Chrome/116.0.0.0 Safari/537.36 OPR/102.0.0.0" etag="hy6rEPjetH6SVHszVBa5" version="22.1.3" type="github">
  <diagram name="Strona-1" id="rvg137ujI-pOE4Nsc6sU">
    <mxGraphModel dx="636" dy="251" grid="1" gridSize="10" guides="1" tooltips="1" connect="1" arrows="1" fold="1" page="1" pageScale="1" pageWidth="827" pageHeight="1169" math="0" shadow="0">
      <root>
        <mxCell id="0" />
        <mxCell id="1" parent="0" />
        <mxCell id="3xDK7fVwsNvy6XHGWpyD-5" value="File" style="swimlane;fontStyle=1;align=center;verticalAlign=top;childLayout=stackLayout;horizontal=1;startSize=26;horizontalStack=0;resizeParent=1;resizeParentMax=0;resizeLast=0;collapsible=1;marginBottom=0;whiteSpace=wrap;html=1;" vertex="1" parent="1">
          <mxGeometry x="250" y="140" width="240" height="174" as="geometry" />
        </mxCell>
        <mxCell id="3xDK7fVwsNvy6XHGWpyD-6" value="-name: string&lt;br&gt;-size: int&lt;br&gt;-type: string&lt;br&gt;-adres: string" style="text;strokeColor=none;fillColor=none;align=left;verticalAlign=top;spacingLeft=4;spacingRight=4;overflow=hidden;rotatable=0;points=[[0,0.5],[1,0.5]];portConstraint=eastwest;whiteSpace=wrap;html=1;" vertex="1" parent="3xDK7fVwsNvy6XHGWpyD-5">
          <mxGeometry y="26" width="240" height="76" as="geometry" />
        </mxCell>
        <mxCell id="3xDK7fVwsNvy6XHGWpyD-7" value="" style="line;strokeWidth=1;fillColor=none;align=left;verticalAlign=middle;spacingTop=-1;spacingLeft=3;spacingRight=3;rotatable=0;labelPosition=right;points=[];portConstraint=eastwest;strokeColor=inherit;" vertex="1" parent="3xDK7fVwsNvy6XHGWpyD-5">
          <mxGeometry y="102" width="240" height="8" as="geometry" />
        </mxCell>
        <mxCell id="3xDK7fVwsNvy6XHGWpyD-8" value="+ setName(string): void&lt;br&gt;+ setAdres(string): void" style="text;strokeColor=none;fillColor=none;align=left;verticalAlign=top;spacingLeft=4;spacingRight=4;overflow=hidden;rotatable=0;points=[[0,0.5],[1,0.5]];portConstraint=eastwest;whiteSpace=wrap;html=1;" vertex="1" parent="3xDK7fVwsNvy6XHGWpyD-5">
          <mxGeometry y="110" width="240" height="64" as="geometry" />
        </mxCell>
        <mxCell id="3xDK7fVwsNvy6XHGWpyD-9" value="Bank_account" style="swimlane;fontStyle=1;align=center;verticalAlign=top;childLayout=stackLayout;horizontal=1;startSize=26;horizontalStack=0;resizeParent=1;resizeParentMax=0;resizeLast=0;collapsible=1;marginBottom=0;whiteSpace=wrap;html=1;" vertex="1" parent="1">
          <mxGeometry x="540" y="150" width="160" height="220" as="geometry" />
        </mxCell>
        <mxCell id="3xDK7fVwsNvy6XHGWpyD-10" value="-name: string&lt;br&gt;-surname: string&lt;br&gt;-type: string&lt;br&gt;-balance: int&lt;br&gt;" style="text;strokeColor=none;fillColor=none;align=left;verticalAlign=top;spacingLeft=4;spacingRight=4;overflow=hidden;rotatable=0;points=[[0,0.5],[1,0.5]];portConstraint=eastwest;whiteSpace=wrap;html=1;" vertex="1" parent="3xDK7fVwsNvy6XHGWpyD-9">
          <mxGeometry y="26" width="160" height="114" as="geometry" />
        </mxCell>
        <mxCell id="3xDK7fVwsNvy6XHGWpyD-11" value="" style="line;strokeWidth=1;fillColor=none;align=left;verticalAlign=middle;spacingTop=-1;spacingLeft=3;spacingRight=3;rotatable=0;labelPosition=right;points=[];portConstraint=eastwest;strokeColor=inherit;" vertex="1" parent="3xDK7fVwsNvy6XHGWpyD-9">
          <mxGeometry y="140" width="160" height="8" as="geometry" />
        </mxCell>
        <mxCell id="3xDK7fVwsNvy6XHGWpyD-12" value="+displayStatus(): int&lt;br&gt;+displayOwner(): string&lt;br&gt;+changeBalance(int): int" style="text;strokeColor=none;fillColor=none;align=left;verticalAlign=top;spacingLeft=4;spacingRight=4;overflow=hidden;rotatable=0;points=[[0,0.5],[1,0.5]];portConstraint=eastwest;whiteSpace=wrap;html=1;" vertex="1" parent="3xDK7fVwsNvy6XHGWpyD-9">
          <mxGeometry y="148" width="160" height="72" as="geometry" />
        </mxCell>
        <mxCell id="3xDK7fVwsNvy6XHGWpyD-13" value="Shop" style="swimlane;fontStyle=1;align=center;verticalAlign=top;childLayout=stackLayout;horizontal=1;startSize=26;horizontalStack=0;resizeParent=1;resizeParentMax=0;resizeLast=0;collapsible=1;marginBottom=0;whiteSpace=wrap;html=1;" vertex="1" parent="1">
          <mxGeometry x="10" y="160" width="180" height="170" as="geometry" />
        </mxCell>
        <mxCell id="3xDK7fVwsNvy6XHGWpyD-14" value="-customers: int&lt;br&gt;-employees: int&lt;br&gt;-openStatus: boolean" style="text;strokeColor=none;fillColor=none;align=left;verticalAlign=top;spacingLeft=4;spacingRight=4;overflow=hidden;rotatable=0;points=[[0,0.5],[1,0.5]];portConstraint=eastwest;whiteSpace=wrap;html=1;" vertex="1" parent="3xDK7fVwsNvy6XHGWpyD-13">
          <mxGeometry y="26" width="180" height="54" as="geometry" />
        </mxCell>
        <mxCell id="3xDK7fVwsNvy6XHGWpyD-15" value="" style="line;strokeWidth=1;fillColor=none;align=left;verticalAlign=middle;spacingTop=-1;spacingLeft=3;spacingRight=3;rotatable=0;labelPosition=right;points=[];portConstraint=eastwest;strokeColor=inherit;" vertex="1" parent="3xDK7fVwsNvy6XHGWpyD-13">
          <mxGeometry y="80" width="180" height="8" as="geometry" />
        </mxCell>
        <mxCell id="3xDK7fVwsNvy6XHGWpyD-16" value="+displayCustomers(): string&lt;br&gt;+displayEmployees():string&lt;br&gt;+isOpen(): boolean&lt;br&gt;+changeStatus(boolean): void" style="text;strokeColor=none;fillColor=none;align=left;verticalAlign=top;spacingLeft=4;spacingRight=4;overflow=hidden;rotatable=0;points=[[0,0.5],[1,0.5]];portConstraint=eastwest;whiteSpace=wrap;html=1;" vertex="1" parent="3xDK7fVwsNvy6XHGWpyD-13">
          <mxGeometry y="88" width="180" height="82" as="geometry" />
        </mxCell>
      </root>
    </mxGraphModel>
  </diagram>
</mxfile>
